<svg width="88" height="59" viewBox="0 0 88 59" fill="none" xmlns="http://www.w3.org/2000/svg">
<g clip-path="url(#clip0)">
<path d="M40.9303 9.27129L35.8889 14.2452C37.1705 17.9926 39.2747 21.408 42.0484 24.2426L49.0365 17.2792L40.9303 9.27129Z" fill="white"/>
<path d="M51.2428 19.5572L44.3545 26.4212C47.5297 28.9904 51.2513 30.8038 55.2359 31.7233L59.3389 27.6348L51.2428 19.5572Z" fill="white"/>
<path d="M61.0652 9.77696L52.9685 17.8451L61.0652 25.9132L69.1619 17.8451L61.0652 9.77696Z" fill="white"/>
<path d="M62.6731 27.5254L66.9758 31.8327C70.9869 30.9679 74.7443 29.1945 77.957 26.65L70.7593 19.4777L62.6731 27.5254Z" fill="white"/>
<path d="M70.8785 0.00657389L62.7817 8.0747L70.8785 16.1428L78.9752 8.0747L70.8785 0.00657389Z" fill="white"/>
<path d="M72.696 17.9557L79.8039 25.0384C82.6585 22.3375 84.8809 19.043 86.3128 15.3891L80.7922 9.8781L72.696 17.9557Z" fill="white"/>
<path d="M0 40.6564V44.7648H5.35088V49.1716V58.8806H10.7317V49.3109V44.7648H15.3738H16.3122L16.3022 40.6564H0Z" fill="white"/>
<path d="M33.363 50.7334C33.0334 50.3975 32.6527 50.1155 32.2349 49.8978C31.8292 49.6794 31.3961 49.5155 30.9471 49.4104L31.1568 49.3109L31.5361 49.1418C31.6157 49.108 31.6924 49.0681 31.7657 49.0224C31.9882 48.8996 32.1988 48.7564 32.3947 48.5947C32.8124 48.2398 33.1523 47.803 33.393 47.3114C33.6414 46.7964 33.7678 46.2315 33.7623 45.6601C33.7993 44.6463 33.4817 43.6512 32.8639 42.8449C32.1934 42.0515 31.2998 41.4763 30.2982 41.1936C29.0023 40.8136 27.6558 40.6324 26.3051 40.6564H18.7979V58.8806H28.4015C29.184 58.8797 29.9618 58.7589 30.7076 58.5225C31.4109 58.3095 32.0702 57.9726 32.6542 57.5277C33.2094 57.1069 33.6659 56.5705 33.992 55.956C34.3183 55.3217 34.4893 54.6195 34.4911 53.9068C34.4994 53.2692 34.3912 52.6355 34.1716 52.0366C33.9894 51.5541 33.7147 51.1115 33.363 50.7334ZM28.2018 54.8319C27.6375 55.1918 26.974 55.3658 26.3051 55.3293H24.1887V44.2177H25.3567C25.9801 44.1978 26.6021 44.2887 27.1935 44.4863C27.5966 44.6085 27.9476 44.8604 28.1918 45.2025C28.3643 45.5057 28.4538 45.8487 28.4514 46.1973C28.4545 46.5533 28.3937 46.9071 28.2717 47.2418C28.141 47.5636 27.9145 47.8378 27.6228 48.0276C27.2392 48.251 26.7987 48.3582 26.355 48.336H26.0555L25.137 51.39H26.5546C26.9687 51.3799 27.3812 51.4439 27.7726 51.579C28.1065 51.6938 28.3938 51.9138 28.5912 52.2057C28.8031 52.5451 28.9074 52.9403 28.8906 53.3397C28.9013 53.6192 28.8443 53.897 28.7244 54.1498C28.6045 54.4026 28.4253 54.6229 28.2018 54.7921V54.8319Z" fill="white"/>
<path d="M44.8037 47.2318L40.8604 40.6564H36.5977V49.3805V58.8806H40.8604V49.1915V48.7339L41.1599 49.1716L44.0749 53.3397H44.7937H44.8037H45.5324L48.7469 48.7339V58.8806H53.0097V47.6397V40.6564H48.7469L44.8037 47.2318Z" fill="white"/>
<path d="M81.2616 47.7491C79.1951 47.2716 77.6777 46.8936 77.6777 45.68C77.6777 44.4664 78.5961 43.8595 80.3232 43.8595C82.2284 43.8637 84.0641 44.5727 85.4744 45.8491L87.6008 43.0538C85.6801 41.3573 83.1776 40.4631 80.6127 40.5569C76.3799 40.5569 73.7943 42.9742 73.7943 45.9585C73.7943 49.9376 77.5679 50.7633 80.5029 51.4298C82.5793 51.9172 84.1467 52.4245 84.1467 53.7177C84.1467 54.7125 83.1484 55.7073 81.012 55.7073C79.9457 55.7094 78.8901 55.4963 77.9087 55.0809C76.9273 54.6654 76.0405 54.0562 75.3017 53.29L73.2053 56.1947C74.2244 57.1547 75.4286 57.8984 76.7448 58.3806C78.061 58.8629 79.4618 59.0736 80.8623 59C85.704 59 88.05 56.533 88.05 53.2502C88.0001 49.2811 84.2265 48.3957 81.2616 47.7491Z" fill="white"/>
<path d="M70.3102 43.0538C70.2303 42.9543 70.1604 42.8449 70.0706 42.7454C69.3646 41.9229 68.4759 41.2758 67.475 40.8553C65.1154 39.94 62.4971 39.94 60.1375 40.8553C59.1272 41.2879 58.2292 41.9446 57.512 42.7752C56.7951 43.6026 56.249 44.5626 55.9047 45.6004C55.7691 46.0548 55.6592 46.5165 55.5753 46.9831C55.4493 47.7092 55.3859 48.4447 55.3856 49.1816C55.3709 50.4995 55.5457 51.8126 55.9047 53.0811C56.2296 54.2013 56.7686 55.2484 57.492 56.1649C58.1991 57.0235 59.0983 57.7049 60.1176 58.1544C62.467 59.1222 65.1056 59.1222 67.455 58.1544C68.4662 57.7055 69.3558 57.0236 70.0506 56.1649C70.7684 55.2492 71.2977 54.2012 71.608 53.0811C71.9622 51.8116 72.1369 50.4992 72.1271 49.1816C72.1363 47.9686 71.9613 46.7612 71.608 45.6004C71.3273 44.6828 70.8881 43.821 70.3102 43.0538ZM66.4268 51.4596C66.3448 52.1154 66.1874 52.7596 65.9576 53.3795C65.7786 53.884 65.4848 54.3403 65.0991 54.7125C64.7453 55.036 64.2815 55.2138 63.8013 55.2099C63.3148 55.2159 62.844 55.0382 62.4835 54.7125C62.0909 54.3519 61.7927 53.9011 61.615 53.3994C61.3852 52.7795 61.2278 52.1353 61.1458 51.4795C61.0471 50.7242 61.0004 49.9631 61.006 49.2015C60.9982 48.4828 61.045 47.7645 61.1458 47.0528C61.2148 46.5652 61.3422 46.0876 61.5252 45.6302C61.691 45.0805 62.044 44.6056 62.5235 44.2873C62.9095 44.0202 63.3715 43.8842 63.8412 43.8993C64.3045 43.8856 64.7598 44.0217 65.139 44.2873C65.2461 44.3757 65.3462 44.4721 65.4385 44.5758C65.6672 44.8089 65.8561 45.0777 65.9975 45.3716C66.231 45.9078 66.3889 46.4735 66.4667 47.0528C66.5712 47.7642 66.6212 48.4825 66.6165 49.2015C66.6048 49.9576 66.5414 50.7121 66.4268 51.4596Z" fill="white"/>
</g>
<defs>
<clipPath id="clip0">
<path d="M0 0H88V59H0V0Z" fill="white"/>
</clipPath>
</defs>
</svg>
